<?xml version="1.0" standalone="no"?>
<!DOCTYPE svg PUBLIC "-//W3C//DTD SVG 1.1//EN" "http://www.w3.org/Graphics/SVG/1.1/DTD/svg11.dtd" >
<svg xmlns="http://www.w3.org/2000/svg">
<metadata>Generated by IcoMoon</metadata>
<defs>
<font id="Wocute" horiz-adv-x="1024">
<font-face units-per-em="1024" ascent="960" descent="-64" />
<missing-glyph horiz-adv-x="1024" />
<glyph unicode="&#x20;" horiz-adv-x="512" d="" />
<glyph unicode="&#xe111;" glyph-name="ic_keyboard_open_nav" d="M521.604 796.378c-12.16 8.569-28.393 8.569-40.553 0l-101.235-71.337c-28.085-19.793-14.082-63.974 20.277-63.974h202.468c34.359 0 48.363 44.181 20.275 63.974l-101.233 71.337zM304.533 282.667c0 21.207 17.193 38.4 38.4 38.4h316.8c21.207 0 38.4-17.193 38.4-38.4s-17.193-38.4-38.4-38.4h-316.8c-21.207 0-38.4 17.193-38.4 38.4zM290.133 598.965h422.4c77.762 0 140.8-63.038 140.8-140.8v-211.2c0-77.76-63.038-140.8-140.8-140.8h-422.4c-77.762 0-140.8 63.040-140.8 140.8v211.2c0 77.762 63.038 140.8 140.8 140.8zM712.533 522.165h-422.4c-35.345 0-64-28.653-64-64v-211.2c0-35.345 28.653-64 64-64h422.4c35.345 0 64 28.655 64 64v211.2c0 35.347-28.653 64-64 64z" />
<glyph unicode="&#xe900;" glyph-name="ic_search_line" d="M694.682 204.998l95.669-98.654c17.551-18.099 46.229-18.321 64.058-0.493s18.050 46.953 0.499 65.052l-96.213 99.217c44.375 58.743 70.692 131.891 70.692 211.185 0 193.683-157.011 350.694-350.692 350.694-193.683 0-350.694-157.011-350.694-350.694 0-193.681 157.011-350.692 350.694-350.692 81.47 0 156.45 27.78 215.987 74.385zM752.587 481.306c0-151.266-122.626-273.892-273.892-273.892-151.268 0-273.894 122.626-273.894 273.892 0 151.268 122.626 273.894 273.894 273.894 151.266 0 273.892-122.626 273.892-273.894z" />
<glyph unicode="&#xe901;" glyph-name="ic_calendar_line" d="M341.335 452.267c21.207 0 38.4 17.193 38.4 38.4s-17.193 38.4-38.4 38.4h-35.556c-21.207 0-38.4-17.193-38.4-38.4s17.193-38.4 38.4-38.4h35.556zM735.292 490.667c0-21.207-17.193-38.4-38.4-38.4h-213.333c-21.207 0-38.4 17.193-38.4 38.4s17.193 38.4 38.4 38.4h213.333c21.207 0 38.4-17.193 38.4-38.4zM341.338 274.487c21.207 0 38.4 17.193 38.4 38.4 0 21.21-17.193 38.4-38.4 38.4h-35.556c-21.207 0-38.4-17.19-38.4-38.4 0-21.207 17.193-38.4 38.4-38.4h35.556zM557.517 312.887c0-21.207-17.193-38.4-38.4-38.4h-35.556c-21.207 0-38.4 17.193-38.4 38.4 0 21.21 17.193 38.4 38.4 38.4h35.556c21.207 0 38.4-17.19 38.4-38.4zM696.894 274.487c21.207 0 38.4 17.193 38.4 38.4 0 21.21-17.193 38.4-38.4 38.4h-35.556c-21.207 0-38.4-17.19-38.4-38.4 0-21.207 17.193-38.4 38.4-38.4h35.556zM415.29 810.666v-35.555h172.087v35.555c0 21.208 17.193 38.4 38.4 38.4 21.21 0 38.4-17.192 38.4-38.4v-35.555h61.156c82.475 0 149.333-66.859 149.333-149.334v-376.887c0-82.475-66.859-149.333-149.333-149.333h-448c-82.474 0-149.333 66.859-149.333 149.333v376.887c0 82.475 66.859 149.334 149.333 149.334h61.156v35.555c0 21.208 17.19 38.4 38.4 38.4 21.207 0 38.4-17.192 38.4-38.4zM587.377 668.444v29.867h-172.087v-29.867c0-21.207-17.193-38.4-38.4-38.4-21.21 0-38.4 17.193-38.4 38.4v29.867h-61.156c-40.060 0-72.533-32.474-72.533-72.533v-376.887c0-40.060 32.474-72.533 72.533-72.533h448c40.060 0 72.533 32.474 72.533 72.533v376.887c0 40.060-32.474 72.533-72.533 72.533h-61.156v-29.867c0-21.207-17.19-38.4-38.4-38.4-21.207 0-38.4 17.193-38.4 38.4z" />
<glyph unicode="&#xe902;" glyph-name="ic_set_line" d="M508.951 285.461c89.769 0 162.541 72.77 162.541 162.539s-72.772 162.541-162.541 162.541c-89.766 0-162.539-72.772-162.539-162.541s72.772-162.539 162.539-162.539zM508.951 362.261c-47.351 0-85.739 38.387-85.739 85.739 0 47.354 38.387 85.741 85.739 85.741 47.354 0 85.741-38.387 85.741-85.741 0-47.351-38.387-85.739-85.741-85.739zM427.053 826.893l-203.174-118.519c-49.935-29.129-80.64-82.588-80.64-140.397v-239.951c0-57.811 30.705-111.27 80.64-140.399l203.174-118.519c50.609-29.521 113.19-29.521 163.799 0l203.172 118.519c49.935 29.129 80.642 82.588 80.642 140.397v239.951c0 57.811-30.705 111.27-80.64 140.399l-203.174 118.519c-50.609 29.522-113.19 29.522-163.799 0zM552.154 760.554l203.174-118.519c26.342-15.364 42.539-43.565 42.539-74.059v-239.951c0-30.496-16.198-58.694-42.539-74.061l-203.174-118.519c-26.697-15.571-59.708-15.571-86.402 0l-203.174 118.519c-26.342 15.366-42.539 43.565-42.539 74.061v239.951c0 30.494 16.196 58.694 42.539 74.059l203.174 118.519c26.697 15.573 59.706 15.573 86.402 0z" />
<glyph unicode="&#xe903;" glyph-name="ic_noticet_line" d="M473.602 800.102v31.898c0 21.208 17.193 38.4 38.4 38.4s38.4-17.192 38.4-38.4v-30.235c13.916-1.2 27.236-3.22 39.345-6.014 123.26-28.444 210.49-140.327 210.49-271.171v-118.507c0-19.748 9.882-37.807 22.349-53.124 19.955-24.514 30.748-55.26 30.748-88.162v-1.897c0-18.963-3.793-39.821-11.377-56.887-5.69-13.276-18.963-24.653-36.030-26.549-3.793-1.897-7.586-1.897-11.379-1.897h-563.2c-7.584 0-13.274 0-17.067 1.897-13.273 3.793-24.651 13.274-30.34 26.549l-1.896 1.897c-7.585 17.067-11.378 36.028-11.378 54.991v1.897c0.106 23.891 6.246 47.369 17.849 68.254 5.847 10.526 12.986 20.22 21.218 28.875 15.169 15.947 27.303 35.697 27.303 57.709v104.956c0 123.26 81.54 233.245 197.216 267.378 12.226 3.608 25.54 6.309 39.349 8.144zM572.478 720.917c-33.879 7.819-83.296 7.177-116.491-2.62-82.325-24.292-142.15-103.77-142.15-193.717v-104.956c0-50.573-27.377-88.478-48.457-110.641-3.776-3.968-7.049-8.414-9.73-13.239-5.297-9.536-8.111-20.252-8.183-31.159v-1.694c0-2.929 0.196-5.783 0.561-8.533h528c0.322 2.775 0.506 5.653 0.506 8.533v1.897c0 15.844-5.079 29.323-13.508 39.68-17.222 21.154-39.588 56.192-39.588 101.606v118.507c0 96.572-63.977 176.265-150.959 196.337zM795.593 254.366l-0.256-0.004c0.188 0.002 0.267 0.004 0.256 0.004zM428.55 147.62c18.345 10.641 41.843 4.397 52.484-13.948 3.147-5.427 7.665-9.931 13.099-13.060 5.436-3.132 11.599-4.779 17.871-4.779s12.433 1.647 17.869 4.779c5.436 3.13 9.952 7.633 13.101 13.060 10.641 18.345 34.14 24.589 52.484 13.948s24.589-34.14 13.948-52.484c-9.899-17.065-24.107-31.228-41.201-41.073-17.094-9.847-36.474-15.029-56.201-15.029s-39.108 5.182-56.203 15.029c-17.094 9.845-31.3 24.009-41.199 41.073-10.641 18.345-4.397 41.843 13.948 52.484z" />
<glyph unicode="&#xe904;" glyph-name="ic_delete_line" d="M362.667 782.608c0-21.208 17.193-38.401 38.4-38.401h221.867c21.207 0 38.4 17.193 38.4 38.401s-17.193 38.4-38.4 38.4h-221.867c-21.207 0-38.4-17.192-38.4-38.4zM388.267 473.6c0 21.207 17.19 38.4 38.4 38.4 21.207 0 38.4-17.193 38.4-38.4v-136.533c0-21.207-17.193-38.4-38.4-38.4-21.21 0-38.4 17.193-38.4 38.4v136.533zM597.333 512c-21.21 0-38.4-17.193-38.4-38.4v-136.533c0-21.207 17.19-38.4 38.4-38.4 21.207 0 38.4 17.193 38.4 38.4v136.533c0 21.207-17.193 38.4-38.4 38.4zM128 657.067c0-21.207 17.192-38.4 38.4-38.4h47.251c-0.211-2.411-0.318-4.849-0.318-7.313v-378.515c0-69.683 57.308-126.172 128-126.172h341.333c70.692 0 128 56.489 128 126.172v378.515c0 2.464-0.107 4.902-0.318 7.313h47.251c21.207 0 38.4 17.193 38.4 38.4s-17.193 38.4-38.4 38.4h-691.2c-21.208 0-38.4-17.193-38.4-38.4zM298.667 618.667h426.667c5.758 0 8.533-4.311 8.533-7.313v-378.515c0-26.229-21.877-49.372-51.2-49.372h-341.333c-29.323 0-51.2 23.142-51.2 49.372v378.515c0 3.002 2.775 7.313 8.533 7.313z" />
<glyph unicode="&#xe905;" glyph-name="ic_reminder_nav" d="M250.095 750.49c16.239 13.642 18.342 37.864 4.702 54.102-13.643 16.238-37.865 18.343-54.102 4.701-40.85-34.318-76.359-74.796-105.102-120.012-11.377-17.899-6.090-41.63 11.808-53.007s41.63-6.091 53.007 11.808c24.516 38.566 54.819 73.114 89.688 102.407zM545.51 561.948c0 21.207-17.193 38.4-38.4 38.4s-38.4-17.193-38.4-38.4v-92.9l-85.649-41.517c-19.083-9.25-27.055-32.22-17.803-51.305 9.25-19.083 32.22-27.055 51.305-17.805l107.298 52.013c13.239 6.419 21.649 19.84 21.649 34.554v116.96zM846.263 444.412c0 190.496-154.426 344.922-344.919 344.922-190.496 0-344.922-154.426-344.922-344.922 0-190.494 154.426-344.919 344.922-344.919 190.494 0 344.919 154.426 344.919 344.919zM769.463 444.412c0-148.079-120.041-268.119-268.119-268.119-148.081 0-268.122 120.041-268.122 268.119s120.041 268.122 268.122 268.122c148.079 0 268.119-120.043 268.119-268.122zM747.87 804.592c-13.641-16.238-11.537-40.46 4.702-54.102 34.869-29.294 65.171-63.841 89.687-102.407 11.377-17.899 35.108-23.185 53.007-11.808s23.185 35.108 11.808 53.007c-28.742 45.216-64.252 85.693-105.103 120.012-16.237 13.642-40.459 11.537-54.101-4.701z" />
<glyph unicode="&#xe906;" glyph-name="ic_more_horizontal_line" d="M811.729 366.816c44.836 0 81.184 36.348 81.184 81.184 0 44.838-36.348 81.186-81.184 81.186s-81.184-36.348-81.184-81.186c0-44.836 36.348-81.184 81.184-81.184zM593.186 448c0-44.836-36.348-81.184-81.184-81.184s-81.184 36.348-81.184 81.184c0 44.838 36.348 81.186 81.184 81.186s81.184-36.348 81.184-81.186zM293.461 448c0-44.836-36.348-81.184-81.184-81.184s-81.185 36.348-81.185 81.184c0 44.836 36.348 81.184 81.185 81.184s81.184-36.348 81.184-81.184z" />
<glyph unicode="&#xe907;" glyph-name="ic_close_line" d="M299.305 727.072l491.769-491.769c18.329-18.329 18.329-48.045 0-66.374s-48.045-18.329-66.374 0l-491.769 491.769c-18.329 18.329-18.329 48.045 0 66.374s48.045 18.329 66.374 0zM791.069 660.697l-491.769-491.769c-18.329-18.329-48.045-18.329-66.374 0s-18.329 48.045 0 66.374l491.769 491.769c18.329 18.329 48.045 18.329 66.374 0s18.329-48.045 0-66.374z" />
<glyph unicode="&#xe908;" glyph-name="ic_arrow_down_line-1" d="M162.349 611.010c17.965 18.686 47.676 19.27 66.361 1.306l283.29-272.365 283.292 272.365c18.684 17.965 48.395 17.38 66.359-1.306 17.965-18.684 17.38-48.395-1.303-66.359l-315.819-303.639c-18.167-17.466-46.889-17.466-65.056 0l-315.819 303.639c-18.685 17.965-19.27 47.676-1.305 66.359z" />
<glyph unicode="&#xe909;" glyph-name="ic_arrow_back_line-1" d="M861.649 284.99c-17.963-18.686-47.674-19.27-66.359-1.306l-283.292 272.365-283.29-272.365c-18.685-17.965-48.396-17.38-66.361 1.306-17.965 18.684-17.38 48.395 1.305 66.359l315.819 303.639c18.167 17.466 46.889 17.466 65.056 0l315.819-303.639c18.686-17.965 19.268-47.676 1.303-66.359z" />
<glyph unicode="&#xe90a;" glyph-name="ic_close_fill" d="M512 853.333c-223.859 0-405.333-181.474-405.333-405.333s181.474-405.333 405.333-405.333c223.859 0 405.333 181.474 405.333 405.333s-181.474 405.333-405.333 405.333zM347.108 612.89c16.446 16.446 43.11 16.446 59.556 0l106.315-106.317 106.317 106.317c16.446 16.446 43.11 16.446 59.556 0 16.446-16.448 16.446-43.11 0-59.556l-106.317-106.317 106.317-106.315c16.446-16.446 16.446-43.11 0-59.556s-43.11-16.446-59.556 0l-106.317 106.315-106.315-106.315c-16.446-16.446-43.11-16.446-59.556 0s-16.446 43.11 0 59.556l106.315 106.315-106.315 106.317c-16.446 16.446-16.446 43.108 0 59.556z" />
<glyph unicode="&#xe90b;" glyph-name="ic_empty_fill" d="M512 42.667c-223.859 0-405.333 181.474-405.333 405.333s181.474 405.333 405.333 405.333c223.859 0 405.333-181.474 405.333-405.333s-181.474-405.333-405.333-405.333zM401.067 451.674c0 76.471 52.489 128.593 105.916 128.593 53.425 0 105.914-52.122 105.914-128.593 0-9.961-0.934-19.612-2.69-28.851-3.957-20.834 9.724-40.934 30.558-44.892 20.836-3.959 40.934 9.724 44.892 30.558 2.654 13.961 4.041 28.412 4.041 43.185 0 107.983-76.734 205.393-182.714 205.393-105.982 0-182.716-97.41-182.716-205.393s76.734-205.393 182.716-205.393c32.996 0 63.795 9.83 90.172 26.645 17.884 11.398 23.14 35.138 11.74 53.020-11.398 17.884-35.138 23.14-53.022 11.742-14.869-9.478-31.469-14.607-48.89-14.607-53.427 0-105.916 52.122-105.916 128.593z" />
<glyph unicode="&#xe90c;" glyph-name="ic_expression_nav" d="M438.123 396.924c-11.036 18.11-34.665 23.844-52.774 12.809s-23.842-34.665-12.806-52.774c27.292-44.783 74.886-76.337 130.85-76.337s103.561 31.554 130.85 76.337c11.038 18.11 5.303 41.737-12.806 52.774-18.11 11.036-41.739 5.301-52.774-12.809-15.313-25.126-39.659-39.503-65.269-39.503s-49.956 14.377-65.269 39.503zM706.31 576.608c12.117-12.117 12.117-31.765 0-43.883l-19.539-19.539 19.539-19.539c12.117-12.117 12.117-31.765 0-43.883s-31.765-12.119-43.883 0l-41.481 41.481c-12.119 12.117-12.119 31.765 0 43.883l41.481 41.481c12.117 12.119 31.765 12.119 43.883 0zM376.759 576c-31.347 0-56.759-25.412-56.759-56.762 0-31.347 25.412-56.759 56.759-56.759 31.349 0 56.762 25.412 56.762 56.759 0 31.349-25.412 56.762-56.762 56.762zM512 827.733c-209.722 0-379.733-170.012-379.733-379.733s170.012-379.733 379.733-379.733c209.722 0 379.733 170.012 379.733 379.733s-170.012 379.733-379.733 379.733zM209.067 448c0 167.305 135.629 302.933 302.933 302.933 167.307 0 302.933-135.629 302.933-302.933s-135.627-302.933-302.933-302.933c-167.305 0-302.933 135.629-302.933 302.933z" />
<glyph unicode="&#xe90d;" glyph-name="ic_mores_line" d="M241.152 806.4c-28.134 0-57.599-4.725-79.611-24.305-23.158-20.599-29.275-49.511-29.275-76.751v-143.349c0-27.319 6.080-56.32 29.331-76.922 22.055-19.541 51.558-24.137 79.555-24.137h127.582c28.117-0.162 57.606 4.431 79.669 23.979 23.226 20.58 29.329 49.551 29.329 76.762v143.667c0 27.241-6.116 56.152-29.274 76.751-22.012 19.58-51.477 24.305-79.612 24.305h-127.695zM209.067 705.344c0 8.474 0.989 13.54 1.939 16.361 0.784 2.33 1.438 2.889 1.566 2.997 0.667 0.593 6.458 4.898 28.58 4.898h127.695c22.125 0 27.9-4.294 28.567-4.887 0.128-0.109 0.796-0.678 1.581-3.008 0.949-2.82 1.937-7.887 1.937-16.361v-143.667c0-8.476-0.99-13.538-1.935-16.35-0.783-2.319-1.425-2.846-1.517-2.923-0.585-0.516-6.289-4.806-28.39-4.668h-127.938c-22.259 0-27.999 4.267-28.623 4.819-0.087 0.070-0.735 0.595-1.517 2.923-0.95 2.829-1.946 7.936-1.946 16.516v143.349zM633.82 806.4c-28.975 0-59.204-5.604-81.244-27.644-22.037-22.039-27.644-52.267-27.644-81.242v-127.695c0-28.975 5.606-59.204 27.644-81.244 22.039-22.037 52.269-27.642 81.244-27.642h127.695c28.975 0 59.202 5.604 81.242 27.642s27.644 52.269 27.644 81.244v127.695c0 28.975-5.604 59.203-27.644 81.242s-52.267 27.644-81.242 27.644h-127.695zM601.732 697.515c0 21.282 4.512 26.295 5.15 26.935 0.64 0.64 5.653 5.15 26.938 5.15h127.695c21.282 0 26.295-4.51 26.935-5.15s5.15-5.653 5.15-26.935v-127.695c0-21.282-4.51-26.298-5.15-26.938-0.64-0.638-5.653-5.148-26.935-5.148h-127.695c-21.284 0-26.298 4.51-26.938 5.148-0.638 0.64-5.15 5.655-5.15 26.938v127.695zM241.152 413.732c-28.974 0-59.203-5.604-81.242-27.642s-27.644-52.269-27.644-81.244v-127.695c0-28.975 5.604-59.202 27.644-81.242s52.268-27.644 81.242-27.644h127.695c28.975 0 59.204 5.604 81.242 27.644s27.644 52.267 27.644 81.242v127.695c0 28.975-5.604 59.204-27.644 81.244-22.037 22.037-52.267 27.642-81.242 27.642h-127.695zM209.067 304.847c0 21.282 4.51 26.298 5.15 26.938 0.64 0.638 5.653 5.15 26.935 5.15h127.695c21.282 0 26.298-4.512 26.938-5.15 0.638-0.64 5.148-5.655 5.148-26.938v-127.695c0-21.282-4.51-26.295-5.148-26.935-0.64-0.64-5.655-5.15-26.938-5.15h-127.695c-21.282 0-26.295 4.51-26.935 5.15s-5.15 5.653-5.15 26.935v127.695zM584 351.733c-21.207 0-38.4-17.193-38.4-38.4s17.193-38.4 38.4-38.4h206.667c21.207 0 38.4 17.193 38.4 38.4s-17.193 38.4-38.4 38.4h-206.667zM584 207.066c-21.207 0-38.4-17.19-38.4-38.4 0-21.207 17.193-38.398 38.4-38.398h132.267c21.207 0 38.4 17.19 38.4 38.398 0 21.21-17.193 38.4-38.4 38.4h-132.267z" />
<glyph unicode="&#xe90e;" glyph-name="ic_keyboard_close_nav" d="M521.604 120.454c-12.16-8.57-28.393-8.57-40.553 0l-101.235 71.339c-28.085 19.791-14.082 63.972 20.277 63.972h202.468c34.359 0 48.363-44.181 20.275-63.972l-101.233-71.339zM304.533 634.165c0-21.207 17.193-38.4 38.4-38.4h316.8c21.207 0 38.4 17.193 38.4 38.4s-17.193 38.4-38.4 38.4h-316.8c-21.207 0-38.4-17.193-38.4-38.4zM290.133 317.867h422.4c77.762 0 140.8 63.038 140.8 140.8v211.2c0 77.761-63.038 140.8-140.8 140.8h-422.4c-77.762 0-140.8-63.038-140.8-140.8v-211.2c0-77.762 63.038-140.8 140.8-140.8zM712.533 394.667h-422.4c-35.345 0-64 28.653-64 64v211.2c0 35.347 28.653 64 64 64h422.4c35.345 0 64-28.653 64-64v-211.2c0-35.347-28.653-64-64-64z" />
<glyph unicode="&#xe90f;" glyph-name="ic_keyboard_line" d="M352 640c-17.673 0-32-14.327-32-32s14.327-32 32-32h29.090c17.675 0 32 14.327 32 32s-14.325 32-32 32h-29.090zM320 472.54c0 17.673 14.327 32 32 32h29.090c17.675 0 32-14.327 32-32s-14.325-32-32-32h-29.090c-17.673 0-32 14.327-32 32zM401.067 347.313c-21.207 0-38.4-17.193-38.4-38.4s17.193-38.4 38.4-38.4h248.781c21.207 0 38.4 17.193 38.4 38.4s-17.193 38.4-38.4 38.4h-248.781zM501.092 504.54c-17.673 0-32-14.327-32-32s14.327-32 32-32h29.092c17.673 0 32 14.327 32 32s-14.327 32-32 32h-29.092zM650.187 504.54c-17.675 0-32-14.327-32-32s14.325-32 32-32h29.090c17.673 0 32 14.327 32 32s-14.327 32-32 32h-29.090zM469.092 608c0 17.673 14.327 32 32 32h29.092c17.673 0 32-14.327 32-32s-14.327-32-32-32h-29.092c-17.673 0-32 14.327-32 32zM618.187 608c0 17.673 14.325 32 32 32h29.090c17.673 0 32-14.327 32-32s-14.327-32-32-32h-29.090c-17.675 0-32 14.327-32 32zM512 827.733c-209.722 0-379.733-170.012-379.733-379.733s170.012-379.733 379.733-379.733c209.722 0 379.733 170.012 379.733 379.733s-170.012 379.733-379.733 379.733zM209.067 448c0 167.305 135.629 302.933 302.933 302.933 167.307 0 302.933-135.629 302.933-302.933s-135.627-302.933-302.933-302.933c-167.305 0-302.933 135.629-302.933 302.933z" />
<glyph unicode="&#xe910;" glyph-name="ic_arrow_down_line" d="M348.99 797.651c-18.686-17.965-19.27-47.676-1.306-66.361l272.365-283.29-272.365-283.292c-17.965-18.684-17.38-48.395 1.306-66.359 18.684-17.965 48.395-17.38 66.359 1.303l303.639 315.819c17.466 18.167 17.466 46.889 0 65.056l-303.639 315.819c-17.965 18.685-47.676 19.27-66.359 1.305z" />
<glyph unicode="&#xe911;" glyph-name="ic_arrow_back_line" d="M675.010 797.651c18.686-17.965 19.27-47.676 1.306-66.361l-272.365-283.29 272.365-283.292c17.965-18.684 17.38-48.395-1.306-66.359-18.684-17.965-48.395-17.38-66.359 1.303l-303.639 315.819c-17.468 18.167-17.468 46.889 0 65.056l303.639 315.819c17.965 18.685 47.676 19.27 66.359 1.305z" />
<glyph unicode="&#xe912;" glyph-name="ic_comment_line" d="M358.266 516.606c0 21.21 17.193 38.4 38.4 38.4h230.675c21.21 0 38.4-17.19 38.4-38.4 0-21.207-17.19-38.4-38.4-38.4h-230.675c-21.207 0-38.4 17.193-38.4 38.4zM396.666 417.794c-21.207 0-38.4-17.193-38.4-38.4s17.193-38.4 38.4-38.4h120.873c21.207 0 38.4 17.193 38.4 38.4s-17.193 38.4-38.4 38.4h-120.873zM518.441 68.32c-0.681-0.036-1.365-0.053-2.054-0.053h-245.406c-71.44 0-121.579 72.041-94.188 139.236 5.154 12.642 10.375 25.239 15.078 36.177-37.727 59.004-59.604 129.152-59.604 204.32 0 209.722 170.012 379.733 379.733 379.733s379.733-170.012 379.733-379.733c0-207.569-166.543-376.241-373.293-379.68zM512 750.933c-167.305 0-302.933-135.629-302.933-302.933 0-66.505 21.386-127.902 57.664-177.839 8.25-11.356 9.647-26.308 3.644-38.995-5.261-11.117-13.562-30.818-22.464-52.655-6.377-15.644 5.052-33.444 23.070-33.444h241.020c167.307 0 302.933 135.627 302.933 302.933s-135.627 302.933-302.933 302.933z" />
<glyph unicode="&#xe913;" glyph-name="ic_forward_line" d="M793.6 338.133c0-78.88-16.011-124.105-42.485-150.581-26.477-26.475-71.701-42.485-150.581-42.485h-198.4c-78.88 0-124.105 16.011-150.579 42.485-26.477 26.477-42.487 71.701-42.487 150.581v198.4c0 78.88 16.010 124.105 42.487 150.581 26.475 26.475 71.699 42.485 150.579 42.485h33.067c21.207 0 38.4 17.192 38.4 38.4s-17.193 38.4-38.4 38.4h-33.067c-86.453 0-156.962-17.056-204.886-64.981-47.925-47.923-64.98-118.432-64.98-204.885v-198.4c0-86.453 17.056-156.962 64.98-204.885 47.924-47.925 118.433-64.981 204.886-64.981h198.4c86.453 0 156.962 17.056 204.887 64.981 47.923 47.923 64.979 118.432 64.979 204.885v156.405c0 21.207-17.193 38.4-38.4 38.4s-38.4-17.193-38.4-38.4v-156.405zM690.052 798.444c-16.813 12.925-40.922 9.773-53.847-7.041s-9.773-40.922 7.042-53.848l22.763-17.498c-115.074-20.134-202.539-120.548-202.539-241.391v-60.785c0-21.207 17.193-38.4 38.4-38.4s38.4 17.193 38.4 38.4v60.785c0 92.932 75.337 168.267 168.267 168.267h65.647c16.446 0 31.066 10.473 36.358 26.042s0.083 32.781-12.954 42.803l-107.537 82.666z" />
<glyph unicode="&#xe914;" glyph-name="ic_normal_fill" d="M514.074 38.519c-225.005 0-407.407 182.402-407.407 407.407s182.402 407.407 407.407 407.407c225.005 0 407.407-182.402 407.407-407.407s-182.402-407.407-407.407-407.407zM514.076 654.080c-21.207 0-38.4-17.193-38.4-38.4 0-21.21 17.193-38.4 38.4-38.4 72.544 0 131.354-58.81 131.354-131.354s-58.81-131.354-131.354-131.354c-59.185 0-109.227 39.142-125.651 92.954h18.415c21.207 0 38.4 17.193 38.4 38.4s-17.193 38.4-38.4 38.4h-62.517c-21.207 0-38.4-17.193-38.4-38.4 0-114.961 93.195-208.154 208.154-208.154 114.961 0 208.154 93.193 208.154 208.154 0 114.959-93.193 208.154-208.154 208.154z" />
<glyph unicode="&#xe915;" glyph-name="ic_like_line" d="M904.117 403.819c20.143 37.333 33.643 76.262 34.49 119.441 0.849 45.837-7.435 89.395-29.131 129.728-39.819 74.135-101.107 120.383-185.696 133.263-60.499 9.162-116.527-4.565-167.159-38.428-2.475-1.646-4.907-3.351-7.309-5.102-22.861-16.683-52.926-15.631-75.725 1.137-2.97 2.185-5.683 4.039-8.141 5.566-68.638 43.026-141.466 51.937-217.478 23.45-100.827-37.924-166.748-139.799-162.435-246.795 0.948-24.077 3.599-47.714 11.224-70.697 11.289-33.769 28.217-64.693 48.051-94.144 32.412-48.030 70.812-90.991 111.642-131.921 51.829-51.981 107.023-99.996 164.627-145.284 0.429-0.337 0.873-0.681 1.331-1.033 52.079-39.938 127.379-39.637 178.889 1.033 34.007 26.85 67.26 54.588 99.499 83.561 47.573 42.839 92.973 87.614 133.993 136.704 26.074 31.204 50.031 63.782 69.329 99.522zM600.235 682.229l0.177 0.117c35.236 23.567 71.58 32.073 111.548 26.027 58.47-8.913 99.249-38.895 128.124-92.657l0.023-0.043c14.067-26.155 20.39-55.782 19.746-90.906-0.538-26.942-8.83-53.47-25.058-83.546-15.91-29.463-36.339-57.559-60.45-86.417-37.85-45.297-80.354-87.343-126.242-128.661-30.79-27.671-62.722-54.317-95.618-80.29-23.025-18.18-58.475-18.498-82.144-0.348l-0.578 0.448c-55.571 43.689-108.316 89.617-157.532 138.978l-0.015 0.017c-38.946 39.038-73.549 78.027-102.091 120.314-17.212 25.562-30.262 50.001-38.632 75.004-4.286 12.954-6.438 28.247-7.251 48.909l-0.003 0.075c-2.973 73.756 43.079 144.151 111.418 169.879 51.885 19.433 99.093 14.18 147.953-16.448l0.279-0.175c0.314-0.194 1.293-0.828 3.027-2.103 48.474-35.654 116.262-39.674 168.83-1.312 1.598 1.165 3.085 2.204 4.489 3.138z" />
<glyph unicode="&#xe916;" glyph-name="ic_ovulation_fill" d="M534.961 755.654c41.348 31.54 93.717 50.243 150.769 50.243 133.886 0 242.27-111.67 242.27-239.29 0-240.23-211.036-388.286-332.489-453.6-52.849-28.422-114.948-30.769-169.105-4.924-121.766 58.112-330.406 195.989-330.406 458.524 0 127.62 108.383 239.29 242.268 239.29 57.052 0 109.423-18.703 150.769-50.243 13.414-10.233 32.51-10.233 45.924 0zM434.931 433.931c-13.975 14.379-36.96 14.707-51.339 0.732-14.379-13.973-14.707-36.958-0.734-51.337l28.689-29.521c55.008-56.602 145.894-56.602 200.902 0l28.689 29.521c13.973 14.379 13.645 37.363-0.734 51.337-14.379 13.975-37.363 13.647-51.339-0.732l-28.687-29.521c-26.494-27.26-70.268-27.26-96.762 0l-28.687 29.521z" />
<glyph unicode="&#xe917;" glyph-name="ic_period_fill" d="M512 40.593c187.505 0 374.933 144.544 374.933 322.85s-187.428 491.964-374.933 491.964c-187.505 0-374.933-313.658-374.933-491.964s187.428-322.85 374.933-322.85zM634.569 414.404c13.408 16.433 37.598 18.884 54.029 5.478 16.433-13.408 18.884-37.598 5.478-54.029l-71.266-87.347c-7.049-8.638-17.504-13.788-28.649-14.108s-21.879 4.218-29.412 12.437l-51.569 56.267-48.533-53.615c-7.328-8.096-17.756-12.687-28.676-12.629-10.918 0.060-21.297 4.764-28.538 12.939l-75.177 84.87c-14.063 15.876-12.593 40.145 3.283 54.206 15.874 14.063 40.145 12.593 54.206-3.283l46.743-52.77 48.047 53.079c7.253 8.011 17.545 12.595 28.35 12.629 10.807 0.032 21.126-4.489 28.429-12.454l50.057-54.618 43.198 52.947z" />
<glyph unicode="&#xe918;" glyph-name="ic_pic_nav" d="M618.667 712.533c62.511 0 101.668-0.162 130.217-4.002 26.34-3.541 31.889-8.896 33.988-10.993 2.097-2.099 7.452-7.648 10.993-33.988 3.84-28.548 4.002-67.706 4.002-130.217v-166.788c0-62.511-0.162-101.668-4.002-130.217-3.541-26.34-8.896-31.889-10.993-33.986-2.099-2.099-7.648-7.454-33.988-10.995-28.548-3.838-67.706-4.002-130.217-4.002h-44.559c-25.929 89.935-65.598 168.753-131.518 223.307-60.22 49.837-138.281 76.126-237.79 76.653v46.029c0 62.511 0.163 101.668 4.001 130.217 3.541 26.34 8.897 31.889 10.994 33.988 2.099 2.097 7.648 7.452 33.988 10.993 28.548 3.84 67.706 4.002 130.217 4.002h234.667zM493.811 187.345h-109.811c-62.511 0-101.668 0.164-130.217 4.002-26.34 3.541-31.889 8.896-33.988 10.995-2.097 2.097-7.452 7.646-10.994 33.986-3.838 28.548-4.001 67.706-4.001 130.217v43.968c85.57-0.495 145.274-22.985 188.826-59.027 44.975-37.22 76.913-92.307 100.186-164.141zM165.49 751.843c-37.49-37.49-37.49-97.829-37.49-218.51v-166.788c0-120.678 0-181.020 37.49-218.509 37.49-37.491 97.829-37.491 218.51-37.491h234.667c120.681 0 181.020 0 218.509 37.491 37.491 37.489 37.491 97.83 37.491 218.509v166.788c0 120.681 0 181.020-37.491 218.51-37.489 37.49-97.828 37.49-218.509 37.49h-234.667c-120.681 0-181.019 0-218.51-37.49zM641.295 533.655c0 35.347-28.653 64-64 64s-64-28.653-64-64c0-35.345 28.653-64 64-64s64 28.655 64 64z" />
<glyph unicode="&#xe919;" glyph-name="ic_pregnant_fill1" d="M321.143 827.668c2.415 11.714 13.871 19.251 25.585 16.835s19.251-13.871 16.834-25.585l-17.677-85.688c-9.513-46.116 1.429-94.093 29.997-131.526 15.842-20.757 27.974-44.1 35.859-68.994l24.747-78.127 2.428-4.988c3.774-7.748 12.446-11.748 20.736-9.679 3.040 1.504 5.98 2.901 8.781 4.171 9.468 4.284 14.654 17.216 9.933 26.475-59.831 117.338 24.002 169.094 63.042 183.735 29.508 11.066 41.37 25.683 57.114 45.088 6.193 7.633 12.988 16.006 21.694 25.197 30.837 32.55 218.43 122.493 293.796-109.687 60.292-185.743-88.855-273.805-170.967-294.618-82.754-334.018-417.498-291.294-496.305-217.628-56.964 53.25-52.947 166.455-41.533 231.185 1.314 7.452-6.571 13.444-13.262 9.914l-39.687-20.947c-19.305-10.189-43.201-1.867-52 18.112-3.427 7.78-4.821 16.305-4.050 24.772l6.989 76.766c0.837 9.19 6.463 17.259 14.8 21.218 11.892 5.649 26.128 1.559 33.212-9.536l1.247-1.954c6.58-10.308 20.41-13.084 30.456-6.11l45.572 31.633c40.905 28.393 97.615 9.719 113.651-37.423l5.941-17.47c6.259-18.398 18.635-29.050 32.51-31.098l-0.109 0.075c14.225-0.608 25.141 12.463 22.007 26.351l-0.288 1.278-31.744 100.215c-6.377 20.132-16.188 39.010-29.001 55.797-36.175 47.401-50.031 108.156-37.984 166.554l17.677 85.688z" />
<glyph unicode="&#xe91a;" glyph-name="ic_pregnant_fill" d="M671.842 820.964c-11.479 11.479-29.022 14.314-43.533 7.036s-22.726-23.034-20.39-39.099l9.837-67.645-199.836-110.765c-30.114 13.894-61.406 21.894-92.983 20.297-39.292-1.988-75.049-18.656-105.781-49.389-14.712-14.714-14.697-38.581 0.015-53.295l122.938-122.938-206.783-281.171c-11.039-15.010-9.448-35.836 3.744-48.994s34.021-14.699 49.004-3.622l280.471 207.354 123.578-123.578c7.066-7.066 16.649-11.036 26.639-11.036 9.993 0 19.575 3.97 26.641 11.036 30.586 30.586 47.053 65.299 48.794 104.388 1.395 31.349-6.829 62.669-20.107 93.606l111.377 200.446 67.507-9.687c16.055-2.304 31.785 5.929 39.044 20.435 7.258 14.505 4.416 32.030-7.053 43.499l-213.122 213.122z" />
<glyph unicode="&#xe91b;" glyph-name="ic_topic_line" d="M822.906 560.314c28.589 0 51.763 23.177 51.763 51.765s-23.174 51.765-51.763 51.765c-28.589 0-51.765-23.177-51.765-51.765s23.177-51.765 51.765-51.765zM133.396 300.256c0-20.585 16.687-37.271 37.271-37.271h111.083l-24.207-100.738c-4.811-20.015 7.279-41.015 27.002-46.908s39.61 5.555 44.418 25.57l29.338 122.076h203.729l-24.209-100.738c-4.809-20.015 7.279-41.015 27.002-46.908s39.61 5.555 44.42 25.57l29.335 122.076h146.005c20.585 0 37.271 16.687 37.271 37.271 0 20.582-16.687 37.269-37.271 37.269h-128.092l95.755 398.473c4.809 20.014-7.279 41.015-27.002 46.908s-39.61-5.555-44.42-25.569l-28.309-117.808h-203.729l23.183 96.469c4.809 20.014-7.281 41.015-27.004 46.908s-39.61-5.555-44.418-25.569l-28.311-117.808h-129.21c-20.582 0-37.27-16.687-37.27-37.269 0-20.585 16.687-37.271 37.27-37.271h111.298l-54.66-227.462h-128.996c-20.584 0-37.271-16.687-37.271-37.269zM430.871 564.988h203.729l-54.66-227.462h-203.729l54.66 227.462z" />
<glyph unicode="&#xe91c;" glyph-name="ic_comments_fill" d="M896 483.556c0 145.312-176.698 263.11-394.667 263.11s-394.667-117.798-394.667-263.11c0-145.312 176.698-263.113 394.667-263.113 22.411 0 44.386 1.246 65.777 3.639v-69.417l197.333 131.556h-2.054c81.933 48.211 133.611 118.748 133.611 197.333zM369.777 483.556c0-36.329-29.449-65.779-65.777-65.779s-65.777 29.451-65.777 65.779c0 36.326 29.449 65.777 65.777 65.777s65.777-29.451 65.777-65.777zM567.11 483.556c0-36.329-29.449-65.779-65.777-65.779s-65.777 29.451-65.777 65.779c0 36.326 29.449 65.777 65.777 65.777s65.777-29.451 65.777-65.777zM764.444 483.556c0-36.329-29.449-65.779-65.777-65.779s-65.777 29.451-65.777 65.779c0 36.326 29.449 65.777 65.777 65.777s65.777-29.451 65.777-65.777z" />
<glyph unicode="&#xe91d;" glyph-name="ic_vote_nav" d="M469.613 729.6c0 21.208 17.193 38.4 38.4 38.4s38.4-17.192 38.4-38.4v-423.97c0-21.207-17.193-38.4-38.4-38.4s-38.4 17.193-38.4 38.4v423.97zM785.626 688.431c-21.207 0-38.4-17.193-38.4-38.4v-344.405c0-21.207 17.193-38.4 38.4-38.4s38.4 17.193 38.4 38.4v344.405c0 21.207-17.193 38.4-38.4 38.4zM230.4 500.567c-21.207 0-38.4-17.193-38.4-38.4v-156.542c0-21.207 17.192-38.4 38.4-38.4s38.4 17.193 38.4 38.4v156.542c0 21.207-17.193 38.4-38.4 38.4zM170.667 186.647c-21.208 0-38.4-17.193-38.4-38.4s17.192-38.4 38.4-38.4h682.666c21.207 0 38.4 17.193 38.4 38.4s-17.193 38.4-38.4 38.4h-682.666z" />
<glyph unicode="&#xe91e;" glyph-name="ic_views_fill" d="M512 316.956c67.326 0 121.905 54.579 121.905 121.905s-54.579 121.905-121.905 121.905c-67.326 0-121.905-54.579-121.905-121.905s54.579-121.905 121.905-121.905zM938.667 438.857c-77.867 144.602-239.787 243.81-426.667 243.81s-348.8-99.209-426.667-243.81c77.867-144.602 239.787-243.808 426.667-243.808s348.8 99.206 426.667 243.808zM694.859 438.854c0-100.99-81.869-182.857-182.857-182.857-100.99 0-182.859 81.867-182.859 182.857s81.869 182.857 182.859 182.857c100.988 0 182.857-81.867 182.857-182.857z" />
<glyph unicode="&#xe91f;" glyph-name="ic_id_fill" d="M542.639 299.712c-13.126 0-23.765 10.641-23.765 23.765v224.873c0 13.124 10.639 23.765 23.765 23.765h38.191c5.751 0 12.723-0.175 20.913-0.523 8.367-0.175 15.686-0.873 21.961-2.091 18.822-3.486 34.159-11.678 46.010-24.574 12.026-12.723 20.915-28.582 26.667-47.58 5.751-18.822 8.627-39.3 8.627-61.436 0-21.436-2.79-41.653-8.367-60.649s-14.379-35.031-26.404-48.102c-11.851-12.896-27.362-21.175-46.532-24.836-6.274-1.045-13.506-1.741-21.698-2.091-8.192-0.348-15.249-0.523-21.175-0.523h-38.191zM315.934 840.135h392.134c108.286 0 196.066-87.782 196.066-196.067v-392.134c0-108.286-87.78-196.068-196.066-196.068h-392.134c-108.286 0-196.068 87.782-196.068 196.068v392.134c0 108.285 87.782 196.067 196.068 196.067zM329.786 271.454c0-13.124 10.641-23.765 23.765-23.765h7.106c13.126 0 23.765 10.641 23.765 23.765v328.919c0 13.124-10.639 23.765-23.765 23.765h-7.106c-13.124 0-23.765-10.641-23.765-23.765v-328.919zM462.927 271.454c0-13.124 10.641-23.765 23.767-23.765h94.135c3.486 0 9.935 0.087 19.345 0.262 9.585 0.173 18.735 0.87 27.45 2.091 29.453 3.661 54.202 14.116 74.244 31.371 20.218 17.429 35.467 39.475 45.749 66.14 10.283 26.839 15.424 56.294 15.424 88.361 0 31.895-5.141 61.173-15.424 87.84-10.283 26.839-25.532 48.973-45.749 66.4-20.043 17.429-44.791 27.972-74.244 31.633-8.715 1.22-17.865 1.918-27.45 2.091-9.41 0.175-15.859 0.262-19.345 0.262h-94.135c-13.126 0-23.767-10.641-23.767-23.765v-328.919z" />
<glyph unicode="&#xe920;" glyph-name="ic_write_vote" d="M408.183 803.549c0 21.208-17.193 38.4-38.4 38.4s-38.4-17.192-38.4-38.4v-17.143c-51.919-6.236-94.441-25.715-125.302-58.95-37.684-40.582-52.483-95.799-52.483-155.019v-302.221c0-59.221 14.799-114.436 52.483-155.019 38.161-41.099 94.153-61.161 163.695-61.161h142.223c21.207 0 38.398 17.193 38.398 38.4s-17.19 38.4-38.398 38.4h-142.223c-54.903 0-87.802 15.494-107.418 36.619-20.094 21.641-31.959 55.313-31.959 102.761v242.848h563.2v-65.071c0-21.207 17.19-38.4 38.4-38.4 21.207 0 38.398 17.193 38.398 38.4v124.444c0 59.219-14.799 114.436-52.482 155.019-30.861 33.235-73.382 52.714-125.301 58.95v17.143c0 21.208-17.193 38.4-38.4 38.4s-38.4-17.192-38.4-38.4v-14.933h-207.631v14.933zM262.359 675.198c14.534 15.65 36.358 28.211 69.024 33.668v-11.983c0-21.21 17.193-38.4 38.4-38.4s38.4 17.19 38.4 38.4v14.933h207.631v-14.933c0-21.21 17.193-38.4 38.4-38.4s38.4 17.19 38.4 38.4v11.983c32.666-5.457 54.49-18.018 69.024-33.668 17.54-18.891 28.811-46.948 31.392-85.333h-562.063c2.581 38.385 13.852 66.443 31.392 85.333zM380.245 423.106c-19.635 0-35.554-15.917-35.554-35.554s15.919-35.556 35.554-35.556h0.32c19.637 0 35.556 15.919 35.556 35.556s-15.919 35.554-35.556 35.554h-0.32zM476.279 387.552c0 19.637 15.919 35.554 35.554 35.554h0.32c19.637 0 35.556-15.917 35.556-35.554s-15.919-35.556-35.556-35.556h-0.32c-19.635 0-35.554 15.919-35.554 35.556zM344.691 280.885c0 19.637 15.919 35.554 35.554 35.554h0.32c19.637 0 35.556-15.917 35.556-35.554s-15.919-35.556-35.556-35.556h-0.32c-19.635 0-35.554 15.919-35.554 35.556zM869.566 336.954c20.122-20.122 31.9-43.354 29.35-69.114-2.383-24.068-16.687-42.413-29.35-55.076l-125.553-125.553c-5.781-6.042-12.759-10.325-18.319-13.105-5.886-2.944-13.15-5.677-20.61-6.854l-48.506-6.833c-17.097-2.43-35.036 2.048-48.090 15.102-13.056 13.056-17.534 30.997-15.102 48.092l6.752 47.974 0.079 0.531c1.199 7.588 3.994 14.822 6.923 20.61 2.927 5.788 7.151 12.429 12.725 18.003l125.867 125.867c12.666 12.666 30.965 26.923 54.914 29.382 25.7 2.641 48.894-9.003 68.919-29.026zM807.185 302.315c-2.007-0.205-7.174-1.948-16.198-10.972l-14.353-14.353c6.959-14.571 18.268-26.545 32.326-34.321l15.351 15.351c9.026 9.024 10.72 14.146 10.916 16.124l0.002 0.023c0.060 0.489 0.71 5.901-10.918 17.53-11.362 11.362-16.636 10.682-17.101 10.622l-0.026-0.004zM764.926 198.635c-12.777 9.321-23.87 20.772-32.785 33.862l-66.897-66.955c-0.275-0.401-0.634-0.99-0.996-1.707s-0.629-1.359-0.791-1.826l-0.060-0.175-5.143-36.548 36.61 5.152c0.077 0.023 0.177 0.055 0.301 0.098 0.527 0.179 1.201 0.459 1.907 0.811 0.578 0.288 1.018 0.55 1.297 0.73l66.558 66.558z" />
<glyph unicode="&#xe921;" glyph-name="ic_menu_nav" d="M416.86 143.571c0-43.945 35.625-79.569 79.571-79.569s79.569 35.625 79.569 79.569-35.625 79.569-79.569 79.569c-43.947 0-79.571-35.625-79.571-79.569zM496.431 357.764c-43.947 0-79.571 35.625-79.571 79.569 0 43.947 35.625 79.571 79.571 79.571s79.569-35.625 79.569-79.571c0-43.945-35.625-79.569-79.569-79.569zM496.418 651.526c-43.945 0-79.569 35.625-79.569 79.571s35.625 79.569 79.569 79.569 79.569-35.625 79.569-79.569c0-43.947-35.625-79.571-79.569-79.571z" />
<glyph unicode="&#xe922;" glyph-name="ic_yes_line" d="M440.523 192.164c-15.539-7.652-34.865-5.015-47.797 7.91-0.201 0.201-0.397 0.401-0.591 0.602l-234.72 234.722c-16.245 16.243-16.245 42.583 0 58.829s42.584 16.245 58.829 0l205.903-205.903 385.598 385.6c16.245 16.245 42.588 16.247 58.835 0.006 16.25-16.243 16.252-42.579 0.006-58.825l-415.025-415.025c-3.317-3.315-7.053-5.954-11.038-7.917z" />
<glyph unicode="&#xe923;" glyph-name="ic_at_line" d="M823.046 335.701l0.028 0.047c13.109 21.451 22.624 45.25 28.565 71.371 6.507 26.046 9.76 52.681 9.76 79.895 0 48.966-7.964 93.062-23.981 132.222-15.407 39.102-37.655 72.35-66.758 99.68-28.493 27.89-62.313 48.942-101.402 63.162-38.526 14.812-80.83 22.188-126.865 22.188-58.336 0-110.921-9.723-157.687-29.256-46.121-18.923-85.5-45.855-118.080-80.801-32.567-34.347-57.409-75.183-74.543-122.447-17.138-46.688-25.683-97.455-25.683-152.256 0-68.335 12.961-127.209 39.072-176.465v0l0.030-0.053c26.712-48.674 65.028-86.093 114.857-112.192 49.839-26.106 109.583-39.063 179.076-39.063 38.229 0 73.022 3.526 104.35 10.615 31.767 6.475 60.371 15.021 85.79 25.66l2.62 1.097v68.597l-5.756-2.142c-24.924-9.274-53.675-17.7-86.27-25.267h-0.002l-0.087-0.021c-31.776-8.090-65.321-12.143-100.644-12.143-56.77 0-104.559 10.135-143.548 30.195-38.377 20.627-67.554 50.379-87.612 89.344-20.081 39.59-30.219 87.693-30.219 144.469 0 46.347 6.662 88.531 19.927 126.596l0.006 0.017c13.267 38.654 32.563 72.038 57.862 100.218 25.843 28.134 57.743 49.99 95.772 65.549 37.973 15.535 81.538 23.354 130.769 23.354 47.913 0 90.47-9.809 127.774-29.323l0.026-0.013c37.833-19.49 67.326-47.834 88.546-85.111v0l0.041-0.068c21.73-36.602 32.717-81.685 32.717-135.465 0-29.476-3.469-56.555-10.364-81.265l-0.019-0.066c-6.31-24.096-15.71-43.345-28.060-57.941l-0.011-0.011c-11.511-13.707-25.538-20.397-42.321-20.397-13.521 0-25.357 4.553-35.686 13.779-4.459 4.228-8.092 10.91-10.596 20.512-2.507 9.609-3.808 21.858-3.808 36.841v8.766c0 4.548 0.286 12.045 0.87 22.558l0.002 0.028 8.919 181.084-2.916 1.094c-14.4 5.399-34.276 10.125-59.497 14.234-24.8 4.721-50.18 7.078-76.139 7.078-38.643 0-72.454-8.627-101.276-26.039v0l-0.034-0.021c-28.156-17.372-50.014-41.344-65.553-71.814-15.556-29.924-23.266-64.516-23.266-103.652 0-49.788 12.158-90.27 36.885-121.028l0.032-0.041c25.487-30.946 61.265-46.266 106.746-46.266 31.657 0 58.298 7.473 79.631 22.711 19.49 13.922 34.641 30.987 45.389 51.181 4.373-18.409 13.737-35.019 27.962-49.79l-0.002-0.002 0.117-0.113c16.747-16.128 39.234-23.987 66.959-23.987 26.421 0 49.472 6.315 68.971 19.11v0l0.077 0.051c19.213 13.21 35.39 30.302 48.538 51.217zM563.275 362.95l-0.038-0.066c-13.135-22.987-34.944-34.673-66.432-34.673-24.045 0-42.995 8.049-57.289 23.974-13.604 15.806-20.855 41.724-20.855 78.718 0 23.505 3.725 45.82 11.155 66.97l0.011 0.034c7.349 21.478 19.456 38.908 36.329 52.405 16.589 13.271 38.652 20.107 66.594 20.107 12.070 0 23.84-0.864 35.313-2.583 9.965-1.495 18.332-3.191 25.141-5.073l-5.097-106.18c0-0.006-0.002-0.015-0.002-0.021-2.313-38.709-10.675-69.833-24.83-93.611z" />
<glyph unicode="&#xe924;" glyph-name="ic_edit_fill" d="M642.827 183.294c-22.933 0-41.527-18.592-41.527-41.527s18.594-41.527 41.527-41.527h192.407c22.935 0 41.527 18.592 41.527 41.527s-18.592 41.527-41.527 41.527h-192.407zM752.93 661.417l-28.363-37.431c-7.418-9.788-21.169-12.122-31.401-5.327l-146.724 97.44c-10.699 7.104-13.613 21.538-6.507 32.238l27.509 41.417c20.326 30.604 61.63 38.902 92.201 18.525l77.182-51.448c31.846-21.229 39.219-64.907 16.102-95.414zM229.114 125.587l-1.082 97.929c-0.288 26.18 7.164 51.866 21.421 73.826l242.185 373.041c7.053 10.865 21.626 13.871 32.403 6.686l152.265-101.498c10.724-7.149 13.589-21.653 6.387-32.343l-245.655-364.634c-16.309-24.207-40.132-42.372-67.795-51.689l-96.305-32.435c-21.385-7.202-43.573 8.553-43.823 31.117z" />
<glyph unicode="&#xe925;" glyph-name="ic_retry_line" d="M187.734 437.333c0 172.019 144.461 313.6 325.333 313.6 104.54 0 197.237-47.462 256.657-120.87l-55.012-61.124c-12.356-13.73-2.613-35.605 15.857-35.605h122.765c11.782 0 21.333 9.551 21.333 21.333v136.405c0 19.552-24.111 28.804-37.19 14.272l-15.859-17.623c-73.882 85.722-184.845 140.013-308.55 140.013-220.896 0-402.133-173.61-402.133-390.4s181.237-390.4 402.133-390.4c171.247 0 318.225 104.068 376.026 251.748 7.729 19.748-2.014 42.025-21.762 49.754-19.75 7.729-42.027-2.014-49.756-21.762-46.212-118.076-164.693-202.94-304.508-202.94-180.873 0-325.333 141.581-325.333 313.6z" />
<glyph unicode="&#xe926;" glyph-name="ic_file-error_line" d="M562.586 744.802h-224.023c-79.915 0-144.697-64.783-144.697-144.698v-310.876c0-79.915 64.782-144.698 144.697-144.698h155.439c21.207 0 38.4-17.193 38.4-38.4s-17.193-38.4-38.4-38.4h-155.439c-122.33 0-221.497 99.168-221.497 221.498v310.876c0 122.33 99.167 221.497 221.497 221.497l263.153-0.006c9.739-0.187 19.26-4.076 26.423-11.241l246.208-246.207c7.255-7.255 11.159-16.926 11.255-26.793v-169.267c0-21.207-17.193-38.4-38.4-38.4s-38.4 17.193-38.4 38.4v130.507h-84.713c-48.29 0-92.704 7.554-123.328 38.176-30.622 30.624-38.176 75.036-38.176 123.328v84.704zM639.386 690.496v-30.398c0-44.036 7.836-61.175 15.682-69.022s24.986-15.682 69.022-15.682h30.398l-115.102 115.102zM596.038 276.038c12.497 12.497 32.759 12.497 45.257 0l52.038-52.038 52.038 52.038c12.497 12.497 32.759 12.497 45.257 0 12.495-12.497 12.495-32.757 0-45.254l-52.041-52.038 45.088-45.090c12.497-12.495 12.497-32.757 0-45.254-12.495-12.497-32.757-12.497-45.254 0l-45.088 45.090-45.088-45.090c-12.497-12.497-32.759-12.497-45.254 0-12.497 12.497-12.497 32.759 0 45.254l45.088 45.090-52.041 52.038c-12.495 12.497-12.495 32.757 0 45.254z" />
<glyph unicode="&#xe927;" glyph-name="ic_play_fill" d="M170.667 458.667v290.542c0 65.464 70.673 106.548 127.561 74.153l510.219-290.543c57.476-32.73 57.476-115.575 0-148.305l-510.219-290.543c-56.887-32.395-127.561 8.689-127.561 74.155v290.541z" />
<glyph unicode="&#xe928;" glyph-name="ic_id_vote" d="M313.946 290.445c0-14.773 11.977-26.752 26.752-26.752s26.752 11.979 26.752 26.752v315.136c0 14.775-11.977 26.752-26.752 26.752s-26.752-11.977-26.752-26.752v-315.136zM444.326 306.359c0-23.563 19.102-42.667 42.667-42.667h72.789c3.413 0 9.728 0.085 18.944 0.256 9.387 0.171 18.347 0.853 26.88 2.048 28.843 3.584 53.077 13.824 72.704 30.72 19.797 17.067 34.731 38.656 44.8 64.768 10.069 26.283 15.104 55.125 15.104 86.528 0 31.232-5.035 59.904-15.104 86.016-10.069 26.283-25.003 47.957-44.8 65.024-19.627 17.067-43.861 27.392-72.704 30.976-8.533 1.195-17.493 1.877-26.88 2.048-9.216 0.171-15.531 0.256-18.944 0.256h-72.789c-23.565 0-42.667-19.102-42.667-42.667v-283.307zM541.777 314.637c-23.565 0-42.667 19.104-42.667 42.667v181.419c0 23.565 19.102 42.667 42.667 42.667h18.005c5.632 0 12.459-0.171 20.48-0.512 8.192-0.171 15.36-0.853 21.504-2.048 18.432-3.413 33.451-11.435 45.056-24.064 11.776-12.459 20.48-27.989 26.112-46.592 5.632-18.432 8.448-38.485 8.448-60.16 0-20.992-2.731-40.789-8.192-59.392s-14.080-34.304-25.856-47.104c-11.605-12.629-26.795-20.736-45.568-24.32-6.144-1.024-13.227-1.707-21.248-2.048s-14.933-0.512-20.736-0.512h-18.005zM405.335 841.956c-92.676 0-167.539-18.3-218.265-69.025s-69.025-125.588-69.025-218.264v-213.333c0-92.676 18.3-167.539 69.025-218.263s125.589-69.026 218.265-69.026h213.333c92.676 0 167.539 18.302 218.263 69.026s69.024 125.587 69.024 218.263v213.333c0 92.676-18.3 167.539-69.024 218.264s-125.587 69.025-218.263 69.025h-213.333zM194.846 554.667c0 85.101 17.255 134.684 46.53 163.957 29.276 29.276 78.857 46.532 163.959 46.532h213.333c85.101 0 134.682-17.255 163.957-46.532 29.276-29.274 46.53-78.857 46.53-163.957v-213.333c0-85.101-17.254-134.684-46.53-163.957-29.276-29.276-78.857-46.532-163.957-46.532h-213.333c-85.103 0-134.684 17.257-163.959 46.532-29.275 29.274-46.53 78.857-46.53 163.957v213.333z" />
<glyph unicode="&#xe929;" glyph-name="ic_location_fill" d="M753.359 747.083c64.013-68.031 99.974-160.301 99.974-256.511 0-124.209-63.716-225.201-129.707-296.979-26.234-28.243-54.423-54.355-84.333-78.114-27.034-21.572-88.836-62.010-88.836-62.010-11.723-7.081-24.975-10.803-38.458-10.803s-26.735 3.723-38.458 10.803c-30.684 18.88-60.343 39.582-88.836 62.010-29.922 23.742-58.114 49.856-84.333 78.114-65.99 71.778-129.707 172.77-129.707 296.979 0 96.209 35.962 188.48 99.974 256.511s150.831 106.25 241.359 106.25c90.528 0 177.346-38.219 241.359-106.25zM512 380.444c75.405 0 136.533 60.493 136.533 135.113s-61.129 135.11-136.533 135.11c-75.405 0-136.533-60.491-136.533-135.11s61.129-135.113 136.533-135.113z" />
<glyph unicode="&#xe92a;" glyph-name="ic_position_vote" d="M512 604.8c-86.598 0-156.8-70.202-156.8-156.8s70.202-156.8 156.8-156.8c86.598 0 156.8 70.202 156.8 156.8s-70.202 156.8-156.8 156.8zM432 448c0 44.181 35.819 80 80 80 44.183 0 80-35.819 80-80 0-44.183-35.817-80-80-80-44.181 0-80 35.817-80 80zM512 881.067c-21.207 0-38.4-17.192-38.4-38.4v-62.447c-153.999-17.606-276.213-139.82-293.819-293.819h-62.447c-21.208 0-38.4-17.193-38.4-38.4s17.192-38.4 38.4-38.4h62.447c17.606-153.999 139.82-276.213 293.819-293.82v-62.447c0-21.207 17.193-38.4 38.4-38.4s38.4 17.193 38.4 38.4v62.447c153.999 17.606 276.213 139.821 293.82 293.82h62.447c21.207 0 38.4 17.193 38.4 38.4s-17.193 38.4-38.4 38.4h-62.447c-17.606 153.999-139.821 276.213-293.82 293.819v62.447c0 21.208-17.193 38.4-38.4 38.4zM254.4 448c0 142.268 115.332 257.6 257.6 257.6s257.6-115.332 257.6-257.6c0-142.268-115.332-257.6-257.6-257.6s-257.6 115.332-257.6 257.6z" />
<glyph unicode="&#xe92b;" glyph-name="ic_send_fill" d="M293.918 428.326l308.977 163.731c8.791 4.659 16.589-7.599 8.644-13.589l-264.166-199.113c-14.242-10.735-24.207-26.182-28.111-43.586l-46.419-206.895c-5.677-25.297 25.53-42.035 43.465-23.313l102.611 107.113c8.13 8.486 21.758 8.267 29.611-0.476l111.061-123.667c20.747-23.1 58.432-17.013 70.85 11.443l282.537 647.425c10.466 23.986-10.432 49.816-36.075 44.586l-735.445-149.999c-31.986-6.524-45.096-45.088-23.712-69.754l114.82-132.448c15.29-17.636 40.727-22.387 61.353-11.458z" />
<glyph unicode="&#xe92c;" glyph-name="ic_video_line" d="M169.265 672.826c-13.865-10.859-24.198-30.671-24.198-78.773v-278.976c0-26.876 8.387-50.66 26.815-67.972 18.577-17.453 52.464-33.114 112.893-33.114h267.375c65.779 0 98.519 9.156 115.379 22.336 13.935 10.893 24.329 30.743 24.329 78.75v278.976c0 48.102-10.334 67.915-24.198 78.773-16.785 13.146-49.485 22.313-115.509 22.313h-267.375c-66.025 0-98.724-9.167-115.509-22.313zM121.912 733.289c38.846 30.424 95.2 38.65 162.863 38.65h267.375c67.661 0 124.015-8.227 162.863-38.65 41.766-32.71 53.645-82.641 53.645-139.236v-278.976c0-56.689-12.030-106.583-53.833-139.258-38.878-30.391-95.191-38.628-162.675-38.628h-267.375c-73.256 0-128.424 19.127-165.479 53.941-37.205 34.953-51.028 80.913-51.028 123.945v278.976c0 56.595 11.877 106.526 53.645 139.236zM839.712 583.827c-0.009-0.006-0.017-0.013-0.026-0.019l-71.029-49.822v-158.528l71.183-49.933c7.194-5.077 12.245-6.839 14.863-7.358 1.101 2.458 2.596 7.654 2.596 16.561v239.671c0 9.043-1.54 14.266-2.65 16.685-2.586-0.476-7.665-2.182-14.938-7.258zM856.286 591.245c0 0-0.017 0-0.047 0.004zM856.386 317.975c0.026 0.002 0.038 0.002 0.038 0.002zM890.515 659.785c32.277-16.855 43.584-52.237 43.584-85.385v-239.671c0-33.114-11.292-68.572-43.659-85.385-32.371-16.815-67.831-5.643-94.837 13.402-0.017 0.013-0.034 0.026-0.051 0.036l-87.347 61.269c-10.246 7.187-16.348 18.918-16.348 31.437v198.468c0 12.516 6.101 24.25 16.348 31.437l87.501 61.376c27.066 18.906 62.524 29.877 94.81 13.015zM473.271 536.617c0 21.207-17.193 38.4-38.4 38.4s-38.4-17.193-38.4-38.4v-60.062h-60.062c-21.207 0-38.4-17.193-38.4-38.4s17.193-38.4 38.4-38.4h60.062v-60.062c0-21.207 17.193-38.4 38.4-38.4s38.4 17.193 38.4 38.4v60.062h60.062c21.207 0 38.4 17.193 38.4 38.4s-17.193 38.4-38.4 38.4h-60.062v60.062z" />
<glyph unicode="&#xe92d;" glyph-name="ic_mute_fill" d="M810.972 746.391c-14.98 15.011-39.294 15.035-54.306 0.053-15.010-14.982-15.034-39.296-0.051-54.306 62.443-62.564 100.986-148.813 100.986-244.139 0-44.075-8.233-86.138-23.209-124.796-7.661-19.776 2.161-42.018 21.937-49.679s42.018 2.161 49.679 21.937c18.349 47.364 28.393 98.825 28.393 152.538 0 116.484-47.2 222.018-123.428 298.391zM690.199 625.805c-14.98 15.012-39.294 15.040-54.306 0.060s-15.040-39.294-0.060-54.306c31.618-31.686 51.1-75.311 51.1-123.558 0-21.207 17.193-38.4 38.4-38.4s38.4 17.193 38.4 38.4c0 69.404-28.137 132.307-73.534 177.805zM512 393.909l-219.778 219.776c-14.502-10.56-32.070-16.352-50.236-16.352h-71.319c-23.564 0-42.667-19.102-42.667-42.667v-213.333c0-23.565 19.103-42.667 42.667-42.667h71.322c22.63 0 44.335-8.99 60.339-24.994l136.836-136.836c26.878-26.878 72.836-7.842 72.836 30.17v226.903zM383.465 703.465l55.699 55.699c26.878 26.879 72.836 7.842 72.836-30.169v-154.067l-128.535 128.538zM219.153 783.513c-14.996-14.996-14.996-39.311 0-54.306l549.092-549.092c14.995-14.995 39.309-14.995 54.306 0 14.995 14.997 14.995 39.311 0 54.306l-549.092 549.092c-14.997 14.996-39.311 14.996-54.306 0z" />
<glyph unicode="&#xe92e;" glyph-name="ic_volume_fill" d="M756.666 746.445c15.012 14.982 39.326 14.958 54.306-0.053 76.228-76.373 123.428-181.907 123.428-298.391s-47.2-222.016-123.428-298.391c-14.98-15.010-39.294-15.034-54.306-0.051-15.010 14.98-15.034 39.294-0.051 54.304 62.443 62.564 100.986 148.815 100.986 244.139 0 95.326-38.543 181.574-100.986 244.139-14.982 15.010-14.959 39.324 0.051 54.306zM241.986 597.333c22.633 0 44.337 8.99 60.341 24.994l136.836 136.836c26.878 26.879 72.836 7.842 72.836-30.17v-561.988c0-38.012-45.958-57.047-72.836-30.17l-136.836 136.836c-16.004 16.004-37.709 24.994-60.341 24.994h-71.319c-23.564 0-42.667 19.102-42.667 42.667v213.333c0 23.565 19.103 42.667 42.667 42.667h71.319zM690.199 625.805c-14.98 15.012-39.294 15.040-54.306 0.060-15.012-14.978-15.040-39.292-0.060-54.306 31.618-31.686 51.1-75.311 51.1-123.558 0-48.318-19.539-91.998-51.236-123.697-14.997-14.995-14.997-39.309 0-54.306 14.995-14.995 39.309-14.995 54.304 0 45.513 45.513 73.732 108.499 73.732 178.003 0 69.404-28.137 132.307-73.534 177.805z" />
<glyph unicode="&#xe92f;" glyph-name="ic_pause_fill" d="M763.733 768c0 21.208-17.193 38.4-38.4 38.4s-38.4-17.192-38.4-38.4v-640c0-21.207 17.193-38.4 38.4-38.4s38.4 17.193 38.4 38.4v640zM337.067 768c0 21.208-17.193 38.4-38.4 38.4s-38.4-17.192-38.4-38.4v-640c0-21.207 17.193-38.4 38.4-38.4s38.4 17.193 38.4 38.4v640z" />
<glyph unicode="&#xe9011;" glyph-name="ic_comment_line1" d="M351.059 520.894c0 21.21 17.193 38.4 38.4 38.4h245.092c21.21 0 38.402-17.19 38.402-38.4 0-21.207-17.193-38.4-38.402-38.4h-245.092c-21.207 0-38.4 17.193-38.4 38.4zM389.459 413.506c-21.207 0-38.4-17.19-38.4-38.4 0-21.207 17.193-38.4 38.4-38.4h128.427c21.207 0 38.4 17.193 38.4 38.4 0 21.21-17.193 38.4-38.4 38.4h-128.427zM518.758 46.989c-0.695-0.036-1.393-0.055-2.097-0.055h-260.745c-74.236 0-126.299 74.848-97.852 144.631 5.663 13.892 11.393 27.708 16.507 39.567-40.267 62.539-63.638 137.020-63.638 216.868 0 221.504 179.565 401.067 401.066 401.067 221.504 0 401.067-179.563 401.067-401.067 0-219.247-175.923-397.404-394.308-401.011zM512 772.267c-179.087 0-324.266-145.18-324.266-324.267 0-71.185 22.893-136.911 61.728-190.364 8.25-11.356 9.645-26.308 3.642-38.995-5.621-11.878-14.464-32.87-23.921-56.066-7.43-18.234 5.922-38.842 26.735-38.842h256.083c179.087 0 324.267 145.18 324.267 324.267s-145.18 324.267-324.267 324.267z" />
<glyph unicode="&#xe90f0;" glyph-name="ic_keyboard_nav" d="M775.465 320.61c28.693-45.22-3.795-104.309-57.348-104.309h-433.566c-53.553 0-86.040 59.089-57.348 104.309l216.783 341.655c26.675 42.042 88.023 42.042 114.699 0l216.781-341.655zM623.531 703.413c-56.838 89.579-187.556 89.579-244.395 0l-216.782-341.658c-61.135-96.352 8.087-222.255 122.196-222.255h433.566c114.11 0 183.332 125.903 122.197 222.255l-216.783 341.658zM500.885 586.449c-21.207 0-38.4-17.193-38.4-38.4v-101.918c0-21.207 17.193-38.4 38.4-38.4s38.4 17.193 38.4 38.4v101.918c0 21.207-17.193 38.4-38.4 38.4zM501.335 354.37c-22.195 0-40.188-18.037-40.188-40.288 0-22.249 17.993-40.286 40.188-40.286 22.193 0 40.186 18.037 40.186 40.286 0 22.251-17.993 40.288-40.186 40.288z" />
</font>
</defs>
</svg>
