<svg viewBox="0 0 175 63" fill="none" xmlns="http://www.w3.org/2000/svg"><rect x="1" y="1" width="61.049" height="61.049" rx="17.109" fill="#fff"/><path d="M15.098 17.379l-.415.255-.285-.395a5.78 5.78 0 0 0-3.555-2.282A5.457 5.457 0 0 1 8.087 13.5l-1.119-1.097c-.066-.065-.099-.097-.122-.116a.577.577 0 0 0-.923.326c-.006.03-.012.076-.022.168l-.042.361c-.171 1.477-.256 2.216-.161 2.881a5.194 5.194 0 0 0 1.959 3.368c.531.412 1.215.703 2.583 1.284l1.503.64-1.608 8.696c-1.85 9.997 4.676 19.625 14.647 21.612l2.129.424c12.803 2.55 25.45-5.04 29.222-17.537l.494-1.64a9.96 9.96 0 0 0-4.481-11.46 15.555 15.555 0 0 0-16.677.567l-8.278 5.665c-4.451 3.046-10.545.263-11.159-5.096l-.044-.386 1.633-.015c1.487-.013 2.23-.02 2.879-.196a5.194 5.194 0 0 0 3.1-2.36c.342-.578.546-1.293.954-2.723l.1-.35c.026-.089.039-.133.044-.163a.577.577 0 0 0-.727-.655 2.053 2.053 0 0 0-.158.06l-1.454.585a5.459 5.459 0 0 1-3.103.29 5.779 5.779 0 0 0-4.159.746z" fill="#FA436F"/><path d="M56.772 27.581a13.764 13.764 0 0 0-13.84 2.33l-6.841 5.792a18.12 18.12 0 0 1-16.765 3.578 10.97 10.97 0 0 1-7.89-10.987l.143-6.113-1.45 7.867c-1.846 10.001 4.771 19.62 14.72 21.606l2.125.424c12.775 2.552 25.394-5.04 29.158-17.543l.494-1.64a9.96 9.96 0 0 0 .146-5.314z" fill="#FFAFAF"/><path d="M23.77 35.672l4.06 1.53-.066 3.48c-.186 9.944-13.405 13.245-18.244 4.555L7.795 42.14c-.41-.737.343-1.576 1.12-1.247a11.697 11.697 0 0 0 14.855-5.221z" fill="#FA436F"/><circle cx="38.59" cy="28.14" r="2.224" transform="rotate(11.265 38.59 28.14)" fill="#6A0505"/><path d="M38.473 19.572a.141.141 0 0 1-.177-.102l-.203-.748-.566-3.836a1.632 1.632 0 0 0-1.937-1.362l-.778.157c-1.426.288-2.677-.995-2.38-2.419a1.997 1.997 0 0 1 1.703-1.574l.57-.07a3.12 3.12 0 0 1 3.377 2.231l.366 1.268c.01.03.017.06.025.091.007-.03.015-.061.024-.091l.366-1.268a3.12 3.12 0 0 1 3.377-2.231l.57.07c.844.103 1.53.742 1.704 1.574.296 1.424-.955 2.707-2.38 2.42l-.779-.158a1.632 1.632 0 0 0-1.937 1.362l-.566 3.836-.203.748a.141.141 0 0 1-.176.102zM86.782 38.316l-3.206-11.892-3.247 11.892c-.252.902-.455 1.551-.608 1.948-.145.388-.402.74-.771 1.055-.37.307-.862.46-1.475.46-.496 0-.906-.095-1.231-.284a2.108 2.108 0 0 1-.771-.771 5.086 5.086 0 0 1-.487-1.204 74.158 74.158 0 0 1-.338-1.299l-3.301-13.352c-.199-.776-.298-1.367-.298-1.773 0-.514.18-.947.541-1.298.361-.352.807-.528 1.34-.528.73 0 1.222.235 1.474.704.253.469.474 1.15.663 2.042l2.597 11.58 2.909-10.836c.216-.83.41-1.46.582-1.894.171-.432.45-.807.838-1.122.388-.316.916-.474 1.583-.474.677 0 1.2.167 1.57.5.378.325.64.682.784 1.07.144.387.338 1.028.582 1.92l2.936 10.837 2.597-11.58a15.49 15.49 0 0 1 .352-1.421 2.38 2.38 0 0 1 .581-.92c.28-.27.681-.406 1.204-.406.523 0 .965.176 1.326.528.37.343.555.775.555 1.299 0 .37-.1.96-.298 1.772l-3.3 13.352c-.226.902-.416 1.565-.569 1.989-.144.415-.397.78-.758 1.096-.351.315-.852.473-1.501.473-.613 0-1.105-.153-1.475-.46-.37-.307-.627-.65-.77-1.028-.145-.388-.348-1.046-.61-1.975zM111.476 34.27c0 1.101-.171 2.116-.514 3.045a6.702 6.702 0 0 1-1.488 2.394 6.645 6.645 0 0 1-2.327 1.542c-.902.352-1.916.528-3.044.528-1.118 0-2.123-.18-3.016-.541a6.816 6.816 0 0 1-2.327-1.542 6.91 6.91 0 0 1-1.488-2.381c-.334-.92-.5-1.935-.5-3.044 0-1.118.17-2.142.513-3.071a6.684 6.684 0 0 1 1.475-2.381 6.428 6.428 0 0 1 2.327-1.515c.911-.361 1.916-.541 3.016-.541 1.119 0 2.133.18 3.044.54a6.63 6.63 0 0 1 2.341 1.543 6.583 6.583 0 0 1 1.474 2.38c.343.92.514 1.935.514 3.045zm-3.706 0c0-1.505-.334-2.678-1.001-3.517-.659-.838-1.547-1.258-2.666-1.258-.721 0-1.357.19-1.907.569-.55.37-.974.92-1.272 1.65-.297.73-.446 1.583-.446 2.557 0 .965.144 1.808.433 2.53.297.721.717 1.276 1.258 1.663.55.38 1.195.569 1.934.569 1.119 0 2.007-.42 2.666-1.258.667-.848 1.001-2.016 1.001-3.504zM127.512 37.206c0 .46-.14.952-.419 1.475-.271.523-.69 1.024-1.258 1.502-.559.469-1.267.847-2.124 1.136-.857.289-1.822.433-2.895.433-2.282 0-4.063-.663-5.344-1.989-1.281-1.334-1.921-3.12-1.921-5.357 0-1.515.293-2.854.879-4.018a6.273 6.273 0 0 1 2.544-2.692c1.109-.64 2.435-.96 3.977-.96.956 0 1.831.14 2.625.419.802.28 1.479.64 2.029 1.082.559.442.983.916 1.271 1.42.298.497.447.961.447 1.394 0 .442-.167.816-.501 1.123-.324.306-.721.46-1.19.46-.307 0-.564-.077-.771-.23-.199-.163-.424-.42-.677-.771-.451-.686-.924-1.2-1.42-1.542-.487-.343-1.109-.515-1.867-.515-1.091 0-1.971.429-2.638 1.286-.667.847-1.001 2.01-1.001 3.49 0 .694.086 1.335.257 1.921.171.577.419 1.073.744 1.488.325.406.717.717 1.177.933.46.208.965.312 1.515.312.74 0 1.371-.172 1.894-.514.532-.343 1.001-.866 1.407-1.57.225-.414.469-.74.73-.974.262-.234.582-.351.961-.351.451 0 .825.17 1.123.514.297.342.446.708.446 1.095zM136.217 41.468c-.577.19-1.236.284-1.975.284-.893 0-1.696-.185-2.408-.555a4.06 4.06 0 0 1-1.637-1.528c-.46-.785-.69-1.912-.69-3.383v-7.318c0-.74.167-1.29.5-1.65.334-.37.776-.555 1.326-.555.559 0 1.01.184 1.353.554.343.37.514.92.514 1.65v5.913c0 1.337.265 2.045 1.281 2.962.378.325.888.487 1.528.487.623 0 1.209-.185 1.759-.554 1.57-1.056 1.222-2.602 1.222-4.316v-4.491c0-.73.172-1.281.514-1.65.343-.37.789-.555 1.34-.555.55 0 .992.184 1.325.554.334.361.501.911.501 1.65V39.67c0 .703-.162 1.23-.487 1.582-.316.352-.726.528-1.231.528a1.64 1.64 0 0 1-1.258-.541c-.794-.858-1.336-.18-3.477.23zM146.601 26.742h1.56v-1.219c0-.595.014-1.06.041-1.393.036-.343.126-.636.27-.88a1.62 1.62 0 0 1 .623-.608c.27-.163.572-.244.906-.244.469 0 .893.176 1.272.528.252.234.41.523.473.866.072.333.108.811.108 1.434v1.516h2.99c.523 0 .843.025 1.179.18.336.154.761.76.761 1.445s-.311 1.213-.85 1.49c-.54.275-2.659.152-3.39.152h-.69l.05 5.38c0 .577.018 1.024.054 1.34.176 1.196.502 2.24 2.07 2.087.37-.08.659-.122.866-.122.298 0 .564.122.798.366.244.234.366.527.366.88 0 .594-.325 1.05-.974 1.366-.65.315-1.583.473-2.801.473-1.154 0-2.029-.194-2.624-.582a2.724 2.724 0 0 1-1.177-1.61c-.181-.685-.271-1.6-.271-2.746l-.05-6.832h-1.641c-.532 0-.853-.167-1.133-.42a1.602 1.602 0 0 1-.537-1.222c0-.575.249-.93.537-1.174.298-.253.655-.451 1.214-.451zM168.411 35.177h-7.224c.009.839.176 1.578.501 2.219.333.64.771 1.123 1.312 1.447a3.5 3.5 0 0 0 1.813.487c.442 0 .843-.05 1.204-.148.369-.109.726-.271 1.068-.488.343-.225.659-.464.947-.717.289-.252.663-.595 1.123-1.028.19-.162.46-.243.812-.243.379 0 .685.104.92.311.234.207.352.5.352.88 0 .333-.131.725-.393 1.176-.261.442-.658.87-1.19 1.285-.523.406-1.186.745-1.989 1.015-.794.27-1.709.406-2.746.406-2.372 0-4.216-.676-5.533-2.03-1.317-1.352-1.975-3.187-1.975-5.505 0-1.091.162-2.102.487-3.03.324-.939.798-1.741 1.42-2.409.622-.667 1.389-1.177 2.3-1.528.911-.361 1.921-.541 3.03-.541 1.443 0 2.679.306 3.707.92 1.037.604 1.813 1.388 2.327 2.353.514.965.771 1.948.771 2.95 0 .928-.266 1.533-.798 1.812-.532.27-1.281.406-2.246.406zm-7.224-2.612h6.697c-.091-1.263-.433-1.69-1.029-2.312-.586-.631-1.361-.947-2.326-.947-.92 0-1.678.32-2.273.96-.586.632-.943 1.054-1.069 2.299z" fill="#FA436F"/></svg>