<svg width="180" height="180" viewBox="0 0 180 180" fill="none" xmlns="http://www.w3.org/2000/svg">
<rect width="180" height="180"/>
<path d="M41.5656 48.2915L40.343 49.0441L39.502 47.8805C36.9829 44.3948 33.2387 41.9907 29.0208 41.1505C25.953 40.5395 23.1299 39.0475 20.8966 36.8573L17.5974 33.6215C17.4022 33.4301 17.3047 33.3344 17.2358 33.2796C16.2519 32.4963 14.7877 33.0143 14.5151 34.2419C14.496 34.3278 14.4803 34.4636 14.4489 34.7351L14.3257 35.8007C13.822 40.1552 13.5701 42.3325 13.8514 44.2952C14.4153 48.2288 16.4861 51.7891 19.6265 54.224C21.1934 55.439 23.2105 56.2966 27.2446 58.0117L31.6757 59.8956L26.9328 85.5377C21.4806 115.014 40.7209 143.402 70.1198 149.258L76.3968 150.508C114.146 158.027 151.433 135.65 162.556 98.8019L164.015 93.9685C167.928 81.0051 162.469 67.0467 150.8 60.1767C135.472 51.1523 116.308 51.8044 101.629 61.8498L77.2228 78.5516C64.0977 87.5335 46.1303 79.3293 44.3213 63.5284L44.1908 62.3885L49.0056 62.3462C53.389 62.3077 55.5807 62.2884 57.4936 61.7666C61.3273 60.7208 64.6043 58.2257 66.6323 54.8084C67.6442 53.1033 68.2459 50.9957 69.4491 46.7804L69.7436 45.749C69.8186 45.4862 69.8561 45.3547 69.8714 45.2681C70.09 44.0297 68.936 42.9902 67.7271 43.3367C67.6425 43.3609 67.5157 43.4119 67.2621 43.514L62.9748 45.2386C60.0728 46.406 56.8934 46.7023 53.8256 46.0913C49.6077 45.2511 45.2282 46.0371 41.5656 48.2915Z" fill="#FA436F"/>
<path d="M164.44 78.3743C150.885 73.1343 135.146 75.4933 123.634 85.2405L103.463 102.321C89.7826 113.905 71.2314 117.863 54.032 112.869C39.7646 108.726 30.1614 95.3535 30.7679 80.4743L31.1928 62.4528L26.9136 85.6466C21.4732 115.134 40.9833 143.493 70.3186 149.351L76.5821 150.602C114.249 158.124 151.456 135.739 162.555 98.8764L164.01 94.0411C165.588 88.8003 165.708 83.4066 164.44 78.3743Z" fill="#FFAFAF"/>
<path d="M67.1358 102.228L79.1048 106.741L78.9124 117C78.3624 146.321 39.3883 156.052 25.1204 130.431L20.0346 121.298C18.8251 119.126 21.0473 116.652 23.3368 117.621C39.7207 124.556 58.6952 117.889 67.1358 102.228Z" fill="#FA436F"/>
<circle cx="110.832" cy="80.0205" r="6.55772" transform="rotate(11.265 110.832 80.0205)" fill="#6A0505"/>
<path d="M110.486 54.7582C110.281 54.8111 110.037 54.7208 109.966 54.4585L109.367 52.2528L107.699 40.9423C107.296 38.2149 104.689 36.3824 101.987 36.9274L99.6919 37.3903C95.4889 38.2379 91.8001 34.4546 92.6746 30.2571C93.1859 27.8028 95.2095 25.9197 97.6979 25.6151L99.3773 25.4095C101.353 25.1676 103.353 25.5728 105.079 26.5643C107.147 27.7525 108.673 29.6973 109.335 31.9888L110.415 35.7253C110.44 35.815 110.464 35.9052 110.486 35.9958C110.508 35.9052 110.532 35.815 110.558 35.7253L111.638 31.9888C112.3 29.6973 113.825 27.7525 115.893 26.5643C117.619 25.5728 119.62 25.1676 121.595 25.4095L123.275 25.6151C125.763 25.9197 127.787 27.8028 128.298 30.2571C129.173 34.4546 125.484 38.2379 121.281 37.3903L118.986 36.9274C116.283 36.3824 113.676 38.2149 113.274 40.9423L111.606 52.2528L111.007 54.4585C110.935 54.7208 110.692 54.8111 110.486 54.7582Z" fill="#FA436F"/>
</svg>
