<svg width="28" height="29" viewBox="0 0 28 29" fill="none" xmlns="http://www.w3.org/2000/svg">
<path d="M7.88538 14.2175L14.7562 10.5765C15.1683 10.3581 15.5339 10.9328 15.1615 11.2135L9.22257 15.6899C8.55493 16.1931 8.08789 16.9173 7.90487 17.733L7.00212 21.7566C6.73606 22.9425 8.19885 23.7271 9.03955 22.8495L10.6704 21.1471C11.0514 20.7493 11.6903 20.7596 12.0583 21.1694L14.284 23.6477C15.2565 24.7306 17.023 24.4452 17.6051 23.1113L24.9919 6.18455C25.4826 5.06018 24.503 3.84943 23.301 4.09459L4.04947 8.02107C2.55011 8.32688 1.93561 10.1346 2.93796 11.2908L5.00951 13.6804C5.7262 14.5071 6.91862 14.7298 7.88538 14.2175Z" fill="#999999"/>
</svg>
